# xmcd
#
# Track frame offsets:
#	150
#	21175
#	41937
#	59987
#	77332
#	93337
#	96125
#	116165
#	132880
#	157087
#	174957
#
# Disc length: 2616 seconds
#
# Revision: 1
# Processed by: cddbd v1.5.1PL0 Copyright (c) Steve Scherf et al.
# Submitted via: CDex 1.50Beta5
#
DISCID=910a360b
DTITLE=明石家さんま - こういう自分がS・U・K・I
DYEAR=1988
DGENRE=Pop
TTITLE0=YELLOW SUNSHINE
TTITLE1=FALL IN LOVE
TTITLE2=BROTHER
TTITLE3=愛の始まり
TTITLE4=バンバンバン
TTITLE5=カスタネットマン
TTITLE6=ノスタルジア
TTITLE7=蒼いタメイキ
TTITLE8=I LOVE YOU…
TTITLE9=真赤なウソ’88
TTITLE10=My Sweet Home Town
EXTD=
EXTT0=
EXTT1=
EXTT2=
EXTT3=
EXTT4=
EXTT5=
EXTT6=
EXTT7=
EXTT8=
EXTT9=
EXTT10=
PLAYORDER=
